HIERARCHY
ROOT Hips
{
  OFFSET 279.157 85.6768 304.565
  CHANNELS 6 Xposition Yposition Zposition Zrotation Xrotation Yrotation
  JOINT LeftUpLeg
  {
    OFFSET 8.64259 1.95398 -2.38835
    CHANNELS 3 Zrotation Xrotation Yrotation
    JOINT LeftLeg
    {
      OFFSET 43.7702 0 0
      CHANNELS 3 Zrotation Xrotation Yrotation
      JOINT LeftFoot
      {
        OFFSET 40.6238 0 0
        CHANNELS 3 Zrotation Xrotation Yrotation
        JOINT LeftToeBase
        {
          OFFSET 12.7242 0 0
          CHANNELS 3 Zrotation Xrotation Yrotation
          End Site
          {
            OFFSET 0 0 0
          }
        }
      }
    }
  }
  JOINT RightUpLeg
  {
    OFFSET -8.2249 1.95398 -2.59336
    CHANNELS 3 Zrotation Xrotation Yrotation
    JOINT RightLeg
    {
      OFFSET 43.5653 0 0
      CHANNELS 3 Zrotation Xrotation Yrotation
      JOINT RightFoot
      {
        OFFSET 40.6238 0 0
        CHANNELS 3 Zrotation Xrotation Yrotation
        JOINT RightToeBase
        {
          OFFSET 12.7242 0 0
          CHANNELS 3 Zrotation Xrotation Yrotation
          End Site
          {
            OFFSET 0 0 0
          }
        }
      }
    }
  }
  JOINT Spine
  {
    OFFSET 0.165834 0.87714 6.61349
    CHANNELS 3 Zrotation Xrotation Yrotation
    JOINT Spine1
    {
      OFFSET 7.38963 1.71661e-005 0
      CHANNELS 3 Zrotation Xrotation Yrotation
      JOINT Spine2
      {
        OFFSET 11.9445 1.14441e-005 0
        CHANNELS 3 Zrotation Xrotation Yrotation
        JOINT Spine3
        {
          OFFSET 14.7254 4.19617e-005 0
          CHANNELS 3 Zrotation Xrotation Yrotation
          JOINT Spine4
          {
            OFFSET 10.9679 0 0
            CHANNELS 3 Zrotation Xrotation Yrotation
            JOINT RightShoulder
            {
              OFFSET 2.46616 -1.6653 3.69651
              CHANNELS 3 Zrotation Xrotation Yrotation
              JOINT RightArm
              {
                OFFSET 13.0012 0 0
                CHANNELS 3 Zrotation Xrotation Yrotation
                JOINT RightForeArm
                {
                  OFFSET 28.7848 1.52588e-005 0
                  CHANNELS 3 Zrotation Xrotation Yrotation
                  JOINT RightHand
                  {
                    OFFSET 26.5688 1.52588e-005 0
                    CHANNELS 3 Zrotation Xrotation Yrotation
                    End Site
                    {
                      OFFSET 0 0 0
                    }
                  }
                }
              }
            }
            JOINT LeftShoulder
            {
              OFFSET 2.38034 -1.29275 -3.7523
              CHANNELS 3 Zrotation Xrotation Yrotation
              JOINT LeftArm
              {
                OFFSET 16.3182 6.10351e-005 0
                CHANNELS 3 Zrotation Xrotation Yrotation
                JOINT LeftForeArm
                {
                  OFFSET 27.0901 0 0
                  CHANNELS 3 Zrotation Xrotation Yrotation
                  JOINT LeftHand
                  {
                    OFFSET 24.5451 1.52588e-005 0
                    CHANNELS 3 Zrotation Xrotation Yrotation
                    End Site
                    {
                      OFFSET 0 0 0
                    }
                  }
                }
              }
            }
            JOINT Neck
            {
              OFFSET 5.0226 -0.0266342 0
              CHANNELS 3 Zrotation Xrotation Yrotation
              JOINT Head
              {
                OFFSET 6.69364 2.86102e-005 0
                CHANNELS 3 Zrotation Xrotation Yrotation
                End Site
                {
                  OFFSET 0 0 0
                }
              }
            }
          }
        }
      }
    }
  }
}
MOTION
Frames:	10
Frame Time:	0.0416667
215.883 101.33 220.907 -103.728 -58.8336 -101.479 -175.23 -1.79323 89.6215 -14.6293 15.2349 1.41499 64.0662 3.19924 3.14512 31.1448 0.789178 2.29117 173.57 -4.79357 86.8788 -12.786 -13.8692 -2.64641 65.4078 -3.39059 0.350411 24.2198 1.03845 3.08865 0.140272 8.22827 -90.0287 10.4174 0.26632 -0.0804334 -1.25348 0.2625 -0.0920843 -23.7889 0.278162 0.00427958 -3.7762 0.278157 0.00427107 85.7812 -33.8005 -113.218 39.3647 -7.58361 -3.6767 1.4819 -21.6865 -16.8767 -26.7439 -0.273446 -9.01578 -91.7404 -55.6506 77.4351 -19.8314 10.392 -12.6958 -4.31851 1.60245 -13.3195 -15.0484 5.14087 -49.0819 7.43831 0.119754 -6.32223 -6.26951 1.26789 3.71635 
215.902 101.27 221.071 -104.109 -58.4054 -101.927 -175.502 -2.37858 89.2253 -14.3344 15.2165 1.60212 63.5503 2.90214 2.98041 32.6218 0.853843 6.24519 173.542 -4.53387 86.6725 -13.9178 -14.1093 -2.80896 65.8143 -3.55718 0.280119 24.3896 0.960357 3.23218 0.165405 8.25915 -90.0319 10.3557 0.314939 -0.090784 -1.3152 0.310629 -0.104563 -23.8507 0.327659 0.00827998 -3.83802 0.327671 0.00827488 85.5745 -33.0694 -113.93 40.3253 -6.62446 -3.1568 1.24852 -21.5531 -17.0014 -27.3884 -0.220773 -9.15746 -91.8985 -55.7289 77.231 -20.0468 9.7318 -12.8231 -3.91535 2.64677 -12.8023 -15.4227 5.24866 -48.7231 7.43104 -0.0585899 -6.38182 -6.17531 1.10647 3.74884 
215.865 101.217 221.132 -104.259 -58.4685 -102.045 -175.361 -2.14484 89.3413 -15.0042 14.8273 1.48601 64.2496 3.43175 2.88838 32.3443 1.12238 4.01477 173.428 -4.18679 86.6055 -14.8238 -14.1944 -2.68165 66.1143 -3.73541 0.137496 24.589 0.907126 3.17418 0.115992 8.27324 -90.0525 10.3276 0.207105 -0.122188 -1.34329 0.201538 -0.131197 -23.8786 0.234261 -0.0542924 -3.86593 0.234255 -0.0543032 85.6196 -32.9817 -113.887 40.2089 -6.89699 -3.08707 1.36296 -21.4475 -17.0056 -27.717 -0.207588 -9.14216 -91.7315 -55.8271 77.486 -19.8898 9.8335 -12.7723 -3.75591 3.02978 -12.7771 -16.041 5.3542 -47.6519 7.28867 0.175144 -6.29894 -6.07407 1.31223 3.80474 
215.905 101.113 221.148 -104.498 -58.3093 -102.246 -174.806 -1.67371 89.7081 -16.1447 15.4159 0.89114 64.4063 3.47206 2.60142 33.0855 1.47309 4.40533 173.525 -3.71269 86.6106 -16.0781 -14.1662 -2.76632 66.5063 -4.01486 0.0766434 24.883 0.787226 3.34045 0.117069 8.33458 -90.0817 10.2048 0.196001 -0.178865 -1.4661 0.187914 -0.187319 -24.0013 0.240685 -0.111685 -3.98869 0.240685 -0.111699 86.0201 -32.8329 -113.212 40.1374 -7.10307 -3.34288 1.22226 -21.6508 -16.7847 -26.618 -0.116656 -9.80959 -91.8907 -56.0533 77.3133 -19.2773 10.6192 -12.9556 -3.85301 2.15982 -12.8019 -16.6741 5.3899 -46.1232 7.58085 0.139909 -5.98343 -5.83234 1.24149 3.66274 
215.939 100.973 221.094 -104.803 -57.9821 -102.68 -174.797 -1.36889 89.4868 -17.2243 15.4223 0.779482 64.8655 4.11102 3.71526 33.0814 1.39582 4.81123 173.319 -2.90167 86.2799 -17.9771 -14.5996 -2.6935 67.233 -4.47563 -0.0460222 25.0354 0.733581 3.37452 0.148321 8.39188 -90.0654 10.0903 0.265853 -0.152008 -1.58063 0.258879 -0.163574 -24.116 0.29923 -0.065092 -4.10333 0.299229 -0.065093 85.5075 -33.2781 -113.958 39.6417 -6.38422 -2.71095 1.15848 -21.7435 -17.5793 -26.5632 -0.120011 -9.8226 -92.0772 -55.7455 76.9848 -19.1376 10.8496 -13.1796 -3.58495 2.77439 -12.3009 -17.7805 5.5321 -44.2692 7.44053 0.133864 -6.21539 -5.37172 1.29286 3.56856 
216.062 100.759 221.021 -104.493 -57.1966 -102.827 -175.212 -0.724192 88.7667 -18.5562 13.9861 0.8442 65.2714 4.21841 3.1081 33.1731 1.13591 6.49639 173.306 -1.2333 85.7647 -20.8657 -15.1402 -2.88041 68.117 -4.94631 0.146825 25.3102 0.71682 2.94564 0.195585 8.43044 -90.0608 10.0133 0.362152 -0.150567 -1.65762 0.355162 -0.16636 -24.1932 0.390637 -0.0347651 -4.18053 0.390646 -0.0347639 85.9452 -32.5239 -113.493 39.9811 -6.2421 -2.66923 1.14649 -21.3362 -17.5873 -27.4038 -0.0698208 -9.81452 -92.3559 -56.0483 76.6636 -18.9933 10.8332 -13.3363 -2.98889 3.50174 -11.9947 -18.7375 5.47646 -41.7362 7.08733 0.17019 -5.93658 -5.40915 1.23609 4.12016 
215.911 100.508 220.879 -105.237 -57.055 -103.609 -174.714 -0.365432 89.0313 -20.0908 14.4479 0.404927 65.977 4.83853 3.4863 33.6516 1.53811 5.85236 173.191 -0.446109 85.6471 -23.221 -15.6492 -2.76135 68.8313 -5.59871 -0.798536 25.1899 0.718169 3.1714 0.159342 8.5289 -90.0445 9.81624 0.297518 -0.112203 -1.85467 0.292309 -0.125202 -24.3901 0.317466 -0.0175964 -4.37746 0.317481 -0.0176033 85.8018 -32.7882 -113.638 39.9104 -5.66729 -2.75793 0.856481 -21.8804 -17.3584 -26.7892 -0.0346584 -10.2506 -92.0511 -55.8282 77.0396 -19.1556 10.3881 -13.3914 -2.20694 4.68869 -11.6843 -20.2772 5.6079 -39.4427 7.45936 0.205821 -5.61871 -5.54042 1.24777 3.21674 
215.742 100.328 220.761 -106.03 -56.9278 -104.34 -174.626 -0.190344 89.1188 -21.4654 14.5825 0.43066 66.4648 5.08812 3.23662 33.946 1.65121 6.19975 173.31 0.0845971 85.6723 -25.1928 -14.9179 -2.80511 69.5908 -5.87249 -0.0402454 25.092 0.805393 2.82651 0.124578 8.60634 -90.0786 9.66136 0.212819 -0.17258 -2.00958 0.205023 -0.181783 -24.5448 0.254843 -0.100632 -4.53219 0.254847 -0.10064 85.8194 -32.3239 -113.82 40.1627 -5.70942 -2.3803 0.390902 -20.6112 -18.0647 -27.2761 -0.147139 -9.27169 -92.2023 -56.0843 76.8859 -19.0906 10.1551 -13.4356 -1.47909 5.54362 -11.1268 -21.341 5.49669 -36.9303 6.68755 0.51323 -6.005 -4.26072 1.61381 3.7817 
215.481 100.233 220.628 -105.919 -56.5499 -104.251 -174.18 0.122302 89.5189 -22.105 14.1752 0.105759 66.8493 5.21294 2.94426 34.0711 1.78011 5.88925 173.54 0.525665 85.8762 -26.2009 -15.179 -2.8788 69.8737 -6.24504 -0.546124 25.489 0.590415 3.38216 0.167046 8.64826 -90.0551 9.57756 0.308213 -0.132903 -2.09335 0.302076 -0.14635 -24.6288 0.333924 -0.0341217 -4.61614 0.333896 -0.0341267 85.7518 -33.1776 -113.553 39.7122 -5.53202 -2.20848 -0.0919061 -21.5715 -17.8017 -27.1656 -0.0788662 -9.90214 -92.1306 -55.1571 76.7776 -19.5391 10.1985 -13.2359 -0.71566 6.43078 -11.1049 -22.1721 5.10726 -33.5248 6.8851 0.260067 -6.45001 -4.33733 1.46204 3.72159 
215.234 100.137 220.52 -105.145 -55.8663 -103.877 -174.23 0.330076 89.2532 -22.2237 13.3851 -0.00882974 66.9194 4.95721 2.33606 34.6059 2.00304 6.43278 173.924 1.53415 85.8307 -27.5664 -14.8947 -3.1754 70.3292 -6.44382 0.0477712 25.6088 0.578681 3.2217 0.168643 8.62772 -90.0448 9.6186 0.316105 -0.113401 -2.05231 0.310816 -0.127202 -24.5878 0.335575 -0.0131484 -4.57511 0.335573 -0.0131505 85.7814 -32.5804 -113.772 41.5885 -0.679126 -1.45244 -4.4379 -26.2522 -19.9652 -22.553 -0.524101 -9.89971 -91.7149 -55.3832 77.4123 -19.2447 10.7999 -12.8968 -0.562451 6.19277 -10.7789 -22.4421 4.61158 -30.483 6.68123 0.563958 -5.98738 -4.59723 1.64746 3.80653 
